<svg xmlns="http://www.w3.org/2000/svg" xmlns:xlink="http://www.w3.org/1999/xlink" x="0px" y="0px" viewBox="0 0 44 44" style="enable-background:new 0 0 44 44;" xml:space="preserve"><g id="lock"></g><g id="video"></g><g id="dress"></g><g id="ring">	<g>		<g>			<path d="M24.912,10.268l3.856-4.627c0.205-0.245,0.279-0.573,0.202-0.883l-1-4C27.859,0.312,27.459,0,27,0H17     c-0.459,0-0.859,0.312-0.97,0.758l-1,4c-0.077,0.31-0.002,0.638,0.202,0.883l3.857,4.627C11.1,11.655,5,18.62,5,27     c0,9.374,7.626,17,17,17s17-7.626,17-17C39,18.62,32.901,11.655,24.912,10.268z M23,6h1c0.552,0,1-0.447,1-1s-0.448-1-1-1h-1V2     h3.219l0.688,2.75L23,9.438V6z M17.781,2H21v2h-3.719L17.781,2z M21,6v3.437L18.135,6H21z M22,42c-8.271,0-15-6.729-15-15     s6.729-15,15-15s15,6.729,15,15S30.271,42,22,42z"></path>			<path d="M22,14c-7.168,0-13,5.832-13,13s5.832,13,13,13s13-5.832,13-13S29.168,14,22,14z M22,38c-6.065,0-11-4.935-11-11     s4.935-11,11-11s11,4.935,11,11S28.065,38,22,38z"></path>		</g>		<g>			<path d="M37,6h-3c-0.552,0-1-0.447-1-1s0.448-1,1-1h3c0.552,0,1,0.447,1,1S37.552,6,37,6z"></path>		</g>		<g>			<path d="M34,10c-0.256,0-0.512-0.098-0.707-0.293l-2-2c-0.391-0.391-0.391-1.023,0-1.414s1.023-0.391,1.414,0l2,2     c0.391,0.391,0.391,1.023,0,1.414C34.512,9.902,34.256,10,34,10z"></path>		</g>		<g>			<path d="M32,4c-0.256,0-0.512-0.098-0.707-0.293c-0.391-0.391-0.391-1.023,0-1.414l2-2c0.391-0.391,1.023-0.391,1.414,0     s0.391,1.023,0,1.414l-2,2C32.512,3.902,32.256,4,32,4z"></path>		</g>		<g>			<path d="M10,6H7C6.448,6,6,5.553,6,5s0.448-1,1-1h3c0.552,0,1,0.447,1,1S10.552,6,10,6z"></path>		</g>		<g>			<path d="M12,4c-0.256,0-0.512-0.098-0.707-0.293l-2-2c-0.391-0.391-0.391-1.023,0-1.414s1.023-0.391,1.414,0l2,2     c0.391,0.391,0.391,1.023,0,1.414C12.512,3.902,12.256,4,12,4z"></path>		</g>		<g>			<path d="M10,10c-0.256,0-0.512-0.098-0.707-0.293c-0.391-0.391-0.391-1.023,0-1.414l2-2c0.391-0.391,1.023-0.391,1.414,0     s0.391,1.023,0,1.414l-2,2C10.512,9.902,10.256,10,10,10z"></path>		</g>	</g></g><g id="dish"></g><g id="hotel"></g><g id="couple"></g><g id="lesbian"></g><g id="gift"></g><g id="birds"></g><g id="gay"></g><g id="key"></g><g id="glass"></g><g id="ring_x5F_box"></g><g id="calendar"></g><g id="rings"></g><g id="suit"></g><g id="photo"></g><g id="balloons"></g><g id="cake"></g><g id="love"></g><g id="letter"></g><g id="bouquet"></g><g id="heart"></g></svg>